<svg width="28" height="28" viewBox="0 0 28 28" fill="none"  xmlns="http://www.w3.org/2000/svg">
<g id="ai-redo-spark--arrow-refresh-sync-synchronize-artificial-intelligence-ai">
<path id="Vector" d="M4.00208 26.9967V21.998H9.00085" stroke="white" stroke-linecap="round" stroke-linejoin="round"/>
<path id="Ellipse 1132" d="M26.7761 11.6115C28.0198 18.2257 23.9723 24.7829 17.3638 26.5538C12.3059 27.909 7.14519 26.086 4.00208 22.3089" stroke="white" stroke-linecap="round" stroke-linejoin="round"/>
<path id="Ellipse 1133" d="M1.22392 16.3884C-0.019864 9.77411 4.02779 3.2168 10.6362 1.44608C15.6938 0.0909216 20.8541 1.91361 23.9973 5.69016" stroke="white" stroke-linecap="round" stroke-linejoin="round"/>
<path id="Vector_2" d="M23.9971 1.00345V6.00222H18.9984" stroke="white" stroke-linecap="round" stroke-linejoin="round"/>
<path id="Vector 2136" d="M8.13399 14.6723C7.42669 14.5493 7.42669 13.5339 8.13399 13.4109C10.6964 12.9651 12.7345 11.0133 13.2907 8.47257L13.3333 8.27781C13.4863 7.57877 14.4817 7.57442 14.6408 8.27209L14.6926 8.49905C15.2693 11.0278 17.308 12.9631 19.8633 13.4077C20.5741 13.5313 20.5741 14.5519 19.8633 14.6755C17.308 15.1201 15.2693 17.0554 14.6926 19.5841L14.6408 19.8111C14.4817 20.5088 13.4863 20.5044 13.3333 19.8054L13.2907 19.6107C12.7345 17.0699 10.6964 15.1181 8.13399 14.6723Z" stroke="white" stroke-linecap="round" stroke-linejoin="round"/>
</g>
</svg>
