<svg width="21" height="21" viewBox="0 0 21 21" fill="none" xmlns="http://www.w3.org/2000/svg">
<path fill-rule="evenodd" clip-rule="evenodd" d="M1.60288 0.190033C1.88473 0.107976 2.18082 0.0868261 2.47146 0.127987L2.48905 0.130478C4.71005 0.499094 6.78591 1.434 8.5235 2.82977V17.5117C6.34113 15.9944 4.3694 15.2926 1.93147 14.8861C1.43168 14.8252 0.97091 14.5842 0.635837 14.2077C0.296294 13.8262 0.109852 13.3326 0.112329 12.822V2.17671C0.112317 1.87784 0.177045 1.58246 0.302062 1.31099C0.427088 1.03951 0.609441 0.798335 0.836574 0.604059C1.05971 0.413315 1.32103 0.272091 1.60288 0.190033ZM10.3901 8.90228V2.82919C12.1275 1.43374 14.2031 0.499041 16.4238 0.130478L16.4414 0.127987C16.732 0.0868261 17.0281 0.107976 17.3099 0.190033C17.5918 0.272091 17.8532 0.413315 18.0763 0.604059C18.3034 0.798335 18.4857 1.03951 18.6108 1.31099C18.7358 1.58246 18.8005 1.87784 18.8005 2.17671V12.822C18.803 13.3326 18.6165 13.8262 18.277 14.2077C18.1986 14.2958 18.1133 14.3765 18.0222 14.4492C17.7318 14.3949 17.4321 14.3665 17.1258 14.3665H16.0059V12.1266C16.0059 10.0649 14.3344 8.39352 12.2727 8.39352C11.5861 8.39352 10.9428 8.57887 10.3901 8.90228ZM10.4061 19.9663V12.1266C10.4061 11.0958 11.2418 10.2601 12.2727 10.2601C13.3035 10.2601 14.1392 11.0958 14.1392 12.1266V16.2332H17.1258C18.7751 16.2332 20.1123 17.5702 20.1123 19.2197V19.9663C20.1123 20.3786 19.778 20.7129 19.3657 20.7129H11.1527C10.7404 20.7129 10.4061 20.3786 10.4061 19.9663Z" fill="white"/>
</svg>
