<svg width="16" height="16" viewBox="0 0 16 16" fill="none" xmlns="http://www.w3.org/2000/svg">
  <path d="M6.98692 1.1001C5.83052 1.26521 4.73436 1.72078 3.80012 2.42456C2.86589 3.12834 2.1238 4.05755 1.64271 5.126C1.16162 6.19446 0.957082 7.36756 1.04808 8.53654C1.13907 9.7055 1.52265 10.8325 2.16323 11.813L1 14.9625L4.89524 14.2555C5.89685 14.7479 7.00211 14.9902 8.11703 14.9618C9.23196 14.9334 10.3236 14.6353 11.299 14.0926C12.2746 13.5499 13.105 12.7786 13.7199 11.8446C14.3348 10.9105 14.7158 9.84126 14.8308 8.72765" stroke="#D8DBE1" stroke-linecap="round" stroke-linejoin="round"/>
  <path d="M12.2053 6.39207C13.6788 6.39207 14.8733 5.19299 14.8733 3.71386C14.8733 2.23472 13.6788 1.03564 12.2053 1.03564C10.7318 1.03564 9.53735 2.23472 9.53735 3.71386C9.53735 5.19299 10.7318 6.39207 12.2053 6.39207Z" stroke="#D8DBE1" stroke-linecap="round" stroke-linejoin="round"/>
</svg>
