<svg width="26" height="26" viewBox="0 0 26 26" fill="none" xmlns="http://www.w3.org/2000/svg">
<g id="ai-edit-spark--change-edit-modify-pencil-write-writing-artificial-intelligence-ai">
<path id="Vector" d="M12.8621 24.5176L7.29065 25.0004L7.77351 19.429L19.362 7.91472C19.5351 7.73784 19.7416 7.59729 19.9697 7.50133C20.1976 7.40538 20.4425 7.35596 20.6899 7.35596C20.9373 7.35596 21.1822 7.40538 21.4103 7.50133C21.6383 7.59729 21.8449 7.73784 22.0178 7.91472L24.3763 10.2919C24.5503 10.4645 24.6885 10.6699 24.7829 10.8962C24.8772 11.1225 24.9257 11.3653 24.9257 11.6104C24.9257 11.8556 24.8772 12.0983 24.7829 12.3247C24.6885 12.551 24.5503 12.7564 24.3763 12.929L12.8621 24.5176Z" stroke="#D8DBE1" stroke-linecap="round" stroke-linejoin="round"/>
<path id="Vector 2136" d="M1.56314 7.37661C0.911409 7.26321 0.911409 6.32764 1.56313 6.21426C3.92424 5.80348 5.80214 4.0051 6.31464 1.66398L6.35392 1.48452C6.49491 0.840406 7.41206 0.836397 7.55868 1.47926L7.60637 1.68839C8.13783 4.01847 10.0163 5.80166 12.3708 6.21129C13.0259 6.32525 13.0259 7.26561 12.3708 7.37956C10.0163 7.78919 8.13783 9.57238 7.60637 11.9025L7.55868 12.1116C7.41206 12.7545 6.49491 12.7505 6.35392 12.1063L6.31464 11.9269C5.80214 9.58576 3.92424 7.78737 1.56314 7.37661Z" stroke="#D8DBE1" stroke-linecap="round" stroke-linejoin="round"/>
</g>
</svg>
