<svg width="17" height="17" viewBox="0 0 17 17" fill="none" xmlns="http://www.w3.org/2000/svg">
<g clip-path="url(#clip0_403_1720)">
<path fill-rule="evenodd" clip-rule="evenodd" d="M1.96745 0.0620117H13.2741C14.3149 0.0620117 15.1586 0.905708 15.1586 1.94646V2.04017L7.62079 5.80907L0.0830078 2.04018V1.94646C0.0830078 0.905708 0.926704 0.0620117 1.96745 0.0620117ZM0.0830078 3.73719V9.48425C0.0830078 10.525 0.926704 11.3687 1.96745 11.3687H7.95023C8.26226 11.0143 8.70502 10.7496 9.27851 10.6498C9.90442 10.5409 10.4028 10.0658 10.542 9.44661L10.5671 9.33164C11.091 6.93845 14.4986 6.92355 15.0434 9.31208L15.0545 9.36102C15.0621 9.39462 15.068 9.42057 15.074 9.4461C15.093 9.52684 15.118 9.60511 15.1485 9.68041C15.1552 9.61593 15.1586 9.55049 15.1586 9.48425V3.73718L7.96019 7.33639C7.74653 7.44322 7.49504 7.44322 7.28139 7.33639L0.0830078 3.73719ZM11.8568 9.61395C12.0791 8.5984 13.5251 8.59208 13.7563 9.60564L13.7671 9.65356C13.7744 9.68622 13.7814 9.7164 13.7888 9.74785C14.0551 10.8821 14.973 11.7488 16.1221 11.9487C17.1813 12.133 17.1813 13.6535 16.1221 13.8379C14.9669 14.0388 14.0453 14.9136 13.7846 16.0569L13.7563 16.1808C13.5251 17.1944 12.0791 17.1881 11.8568 16.1726L11.8335 16.0661C11.5823 14.9187 10.662 14.0374 9.50481 13.8361C8.44754 13.6521 8.44754 12.1344 9.50481 11.9505C10.6579 11.7498 11.5759 10.8739 11.8309 9.73235L11.848 9.65404L11.8568 9.61395Z" fill="white"/>
</g>
<defs>
<clipPath id="clip0_403_1720">
<rect width="17" height="17" fill="white"/>
</clipPath>
</defs>
</svg>
