<svg width="20" height="15" viewBox="0 0 20 15" fill="none" xmlns="http://www.w3.org/2000/svg">
<path fill-rule="evenodd" clip-rule="evenodd" d="M4.18957 2.12999C5.79414 0.973957 7.79371 0 10 0C12.2063 0 14.2059 0.973957 15.8104 2.12999C17.4209 3.2902 18.6957 4.67851 19.4674 5.61127L19.4739 5.61917C19.8186 6.04803 20 6.59149 20 7.14294C20 7.69439 19.8186 8.23786 19.4739 8.66671L19.4674 8.67461C18.6957 9.60736 17.4209 10.9957 15.8104 12.1559C14.2059 13.3119 12.2063 14.2859 10 14.2859C7.79371 14.2859 5.79414 13.3119 4.18957 12.1559C2.5792 10.9957 1.30433 9.60736 0.532557 8.67461L0.526114 8.66671C0.181464 8.23786 0 7.69439 0 7.14294C0 6.59149 0.181464 6.04803 0.526114 5.61917L0.532557 5.61127C1.30433 4.67851 2.5792 3.2902 4.18957 2.12999ZM10 10.3571C11.7752 10.3571 13.2143 8.91806 13.2143 7.14286C13.2143 5.36766 11.7752 3.92857 10 3.92857C8.2248 3.92857 6.78571 5.36766 6.78571 7.14286C6.78571 8.91806 8.2248 10.3571 10 10.3571Z" fill="white"/>
</svg>
