<svg width="28" height="28" viewBox="0 0 28 28" fill="none" xmlns="http://www.w3.org/2000/svg">
<g id="home-3--home-house-roof-shelter">
<path id="Vector" d="M26.9999 13.88C27.0019 13.6024 26.9459 13.3274 26.8357 13.0726C26.7255 12.8178 26.5636 12.5887 26.36 12.4L14 1L1.64004 12.4C1.43649 12.5887 1.27447 12.8178 1.16429 13.0726C1.0541 13.3274 0.998168 13.6024 1.00005 13.88V25C1.00005 25.5304 1.21076 26.0392 1.58583 26.4141C1.9609 26.7891 2.46962 26.9999 3.00004 26.9999H25C25.5304 26.9999 26.0392 26.7891 26.4141 26.4141C26.7893 26.0392 26.9999 25.5304 26.9999 25V13.88Z" stroke="white" stroke-linecap="round" stroke-linejoin="round"/>
<path id="Vector_2" d="M14 27V19" stroke="white" stroke-linecap="round" stroke-linejoin="round"/>
</g>
</svg>
