<svg width="24" height="24" viewBox="0 0 24 24" fill="none" xmlns="http://www.w3.org/2000/svg">
<path fill-rule="evenodd" clip-rule="evenodd" d="M7.86735 2.43289C7.86735 1.08924 8.95659 0 10.3002 0H21.3303C22.674 0 23.7633 1.08924 23.7633 2.43289V21.3417C23.7633 22.6853 22.674 23.7746 21.3303 23.7746H12.9267C13.06 23.4086 13.1326 23.0136 13.1326 22.6015V19.4851C13.1326 19.343 13.1268 19.2015 13.1152 19.061C13.4139 19.1148 13.7188 19.1424 14.0266 19.1424H16.3775C18.271 19.1424 19.806 17.6073 19.806 15.7137C19.806 14.154 18.7644 12.8375 17.339 12.4219C18.3036 11.5208 18.9069 10.2375 18.9069 8.81325C18.9069 6.08682 16.6966 3.87661 13.9701 3.87661C11.758 3.87661 9.88577 5.33156 9.25809 7.3367C8.81619 7.1492 8.3482 7.02359 7.86735 6.96539V2.43289ZM11.1763 8.81325C11.1763 7.27028 12.4272 6.01946 13.9701 6.01946C15.5131 6.01946 16.7639 7.27028 16.7639 8.81325C16.7639 10.3562 15.5131 11.607 13.9701 11.607C12.4272 11.607 11.1763 10.3562 11.1763 8.81325ZM11.3171 11.5918L11.3213 11.596L13.8764 14.1511C13.9166 14.1913 13.9711 14.2138 14.0279 14.2138L16.3789 14.2138C17.2073 14.2138 17.8788 14.8853 17.8788 15.7138C17.8788 16.5422 17.2073 17.2138 16.3789 17.2138H14.0279C13.1755 17.2138 12.3579 16.8752 11.7551 16.2724L10.2565 14.7738L9.04032 15.99L10.2626 17.2123C10.8654 17.815 11.2041 18.6326 11.2041 19.4851V22.1726C11.2041 23.0009 10.5325 23.6726 9.70406 23.6726C8.87563 23.6726 8.20406 23.0009 8.20406 22.1726V19.4851C8.20406 19.4284 8.18148 19.3738 8.1413 19.3336L6.89799 18.0903C6.34215 18.5122 5.66033 18.7444 4.95458 18.7444H1.5C0.671573 18.7444 0 18.0727 0 17.2444C0 16.4159 0.671573 15.7443 1.5 15.7443H4.95458C5.01141 15.7443 5.0659 15.7217 5.1061 15.6816L8.13516 12.6525L7.40213 11.9195C7.36195 11.8793 7.30743 11.8567 7.25061 11.8567L4.13395 11.8567C3.30554 11.8566 2.63397 11.1851 2.63398 10.3566C2.63398 9.52821 3.30557 8.85664 4.134 8.85666L7.25064 8.85669C8.1031 8.85671 8.92066 9.19535 9.52344 9.79813L11.3129 11.5876L11.3171 11.5918Z" fill="#D8DBE1"/>
</svg>
