<svg width="15" height="14" viewBox="0 0 15 14" fill="none" xmlns="http://www.w3.org/2000/svg">
  <path d="M5.36364 12.2404L1 13.5004L2.22182 9.00039L10.2121 0.800387C10.3024 0.705141 10.4103 0.629462 10.5293 0.577795C10.6484 0.526127 10.7763 0.499512 10.9055 0.499512C11.0346 0.499512 11.1625 0.526127 11.2816 0.577795C11.4006 0.629462 11.5085 0.705141 11.5988 0.800387L13.3152 2.58039C13.406 2.67335 13.4782 2.78396 13.5274 2.90581C13.5767 3.02767 13.602 3.15838 13.602 3.29039C13.602 3.4224 13.5767 3.55311 13.5274 3.67497C13.4782 3.79683 13.406 3.90743 13.3152 4.00039L5.36364 12.2404Z" stroke="#D8DBE1" stroke-linecap="round" stroke-linejoin="round"/>
</svg>
