<svg width="28" height="28" viewBox="0 0 28 28" fill="none" xmlns="http://www.w3.org/2000/svg">
<rect width="28" height="28" fill="#1E1E1E"/>
<g id="landing page section 8" clip-path="url(#clip0_0_1)">
<rect width="1440" height="1024" transform="translate(-134 -425)" fill="black"/>
<g id="Left Sidebar" clip-path="url(#clip1_0_1)">
<g id="Navigation">
<g id="sidebar/menu/item">
<rect x="-26" y="-10" width="210" height="48" rx="24" fill="#0C0F15"/>
<g id="star-badge--ribbon-reward-like-social-rating-media">
<path id="Ellipse 19" d="M23.9069 10.9124C23.9069 16.3868 19.4689 20.8248 13.9944 20.8248C8.51995 20.8248 4.08203 16.3868 4.08203 10.9124C4.08203 5.43793 8.51995 1 13.9944 1C19.4689 1 23.9069 5.43793 23.9069 10.9124Z" stroke="white" stroke-linecap="round" stroke-linejoin="round"/>
<path id="Vector" d="M14.4 5.53048L15.7654 8.2772C15.796 8.34666 15.8444 8.40678 15.9058 8.45142C15.9671 8.49604 16.0392 8.52358 16.1147 8.53122L19.1472 8.99166C19.2339 9.00294 19.3156 9.03868 19.3828 9.09468C19.4499 9.15068 19.4997 9.22464 19.5263 9.3079C19.553 9.39118 19.5554 9.48032 19.5332 9.56488C19.5111 9.64946 19.4653 9.72598 19.4012 9.7855L17.1626 11.913C17.1292 11.9767 17.1118 12.0475 17.1118 12.1194C17.1118 12.1913 17.1292 12.2621 17.1626 12.3258L17.5913 15.3424C17.6096 15.4296 17.6022 15.5202 17.57 15.6033C17.5378 15.6864 17.4822 15.7583 17.4099 15.8104C17.3376 15.8625 17.2518 15.8926 17.1628 15.8969C17.0738 15.9011 16.9855 15.8795 16.9086 15.8346L14.2095 14.4057C14.1396 14.3741 14.0639 14.3578 13.9872 14.3578C13.9106 14.3578 13.8348 14.3741 13.7649 14.4057L11.0659 15.8346C10.9889 15.8795 10.9006 15.9011 10.8116 15.8969C10.7226 15.8926 10.6368 15.8625 10.5645 15.8104C10.4923 15.7583 10.4367 15.6864 10.4045 15.6033C10.3723 15.5202 10.3649 15.4296 10.3832 15.3424L10.8912 12.3258C10.9131 12.2558 10.9173 12.1815 10.9034 12.1094C10.8896 12.0374 10.8581 11.9699 10.8118 11.913L8.5732 9.76962C8.51382 9.70948 8.47214 9.63414 8.45272 9.55188C8.43332 9.4696 8.43694 9.38358 8.46318 9.30324C8.4894 9.2229 8.53726 9.15132 8.60146 9.09636C8.66568 9.0414 8.74378 9.00518 8.82722 8.99166L11.8597 8.5471C11.9352 8.53946 12.0073 8.51192 12.0687 8.4673C12.1301 8.42266 12.1785 8.36254 12.209 8.29308L13.5744 5.54636C13.611 5.4686 13.6685 5.40262 13.7406 5.35588C13.8127 5.30914 13.8964 5.28348 13.9823 5.28182C14.0682 5.28018 14.1528 5.30258 14.2266 5.34654C14.3005 5.39048 14.3605 5.4542 14.4 5.53048Z" stroke="white" stroke-linecap="round" stroke-linejoin="round"/>
<path id="Vector 2353" d="M5.40806 15.7745L1 23.4095L5.76302 22.1333L7.03927 26.8963L10.8639 20.2719" stroke="white" stroke-linecap="round" stroke-linejoin="round"/>
<path id="Vector 2354" d="M22.5922 15.7745L27.0002 23.4095L22.2372 22.1333L20.961 26.8963L17.1364 20.2719" stroke="white" stroke-linecap="round" stroke-linejoin="round"/>
</g>
</g>
</g>
</g>
</g>
<defs>
<clipPath id="clip0_0_1">
<rect width="1440" height="1024" fill="white" transform="translate(-134 -425)"/>
</clipPath>
<clipPath id="clip1_0_1">
<rect width="275" height="1019" fill="white" transform="translate(-26 -413)"/>
</clipPath>
</defs>
</svg>
