<svg width="29" height="29" viewBox="0 0 29 29" fill="none" xmlns="http://www.w3.org/2000/svg">
<g clip-path="url(#clip0_576_37)" filter="url(#filter0_d_576_37)">
<path fill-rule="evenodd" clip-rule="evenodd" d="M6.6123 2.2504C6.51759 2.2504 6.42675 2.28803 6.35976 2.355C6.29279 2.42199 6.25516 2.51283 6.25516 2.60754V4.7504C6.25516 5.34213 5.77546 5.82183 5.18373 5.82183C4.592 5.82183 4.1123 5.34213 4.1123 4.7504V2.60754C4.1123 1.9445 4.3757 1.30862 4.84454 0.839777C5.31338 0.370937 5.94926 0.107544 6.6123 0.107544H8.75516C9.34689 0.107544 9.82659 0.587238 9.82659 1.17897C9.82659 1.7707 9.34689 2.2504 8.75516 2.2504H6.6123ZM23.0409 14.3933C23.6326 14.3933 24.1123 14.873 24.1123 15.4647V17.6075C24.1123 18.2705 23.8489 18.9064 23.38 19.3753C22.9112 19.8441 22.2753 20.1075 21.6123 20.1075H19.4694C18.8777 20.1075 18.398 19.6278 18.398 19.0361C18.398 18.4444 18.8777 17.9647 19.4694 17.9647H21.6123C21.707 17.9647 21.7979 17.9271 21.8649 17.8601C21.9319 17.7931 21.9694 17.7023 21.9694 17.6075V15.4647C21.9694 14.873 22.4492 14.3933 23.0409 14.3933ZM6.25516 15.4647C6.25516 14.873 5.77546 14.3933 5.18373 14.3933C4.592 14.3933 4.1123 14.873 4.1123 15.4647V17.6075C4.1123 18.2705 4.3757 18.9064 4.84454 19.3753C5.31338 19.8441 5.94926 20.1075 6.6123 20.1075H8.75516C9.34689 20.1075 9.82659 19.6278 9.82659 19.0361C9.82659 18.4444 9.34689 17.9647 8.75516 17.9647H6.6123C6.51759 17.9647 6.42675 17.9271 6.35976 17.8601C6.29279 17.7931 6.25516 17.7023 6.25516 17.6075V15.4647ZM18.398 1.17897C18.398 0.587238 18.8777 0.107544 19.4694 0.107544H21.6123C22.2753 0.107544 22.9112 0.370937 23.38 0.839777C23.8489 1.30862 24.1123 1.9445 24.1123 2.60754V4.7504C24.1123 5.34213 23.6326 5.82183 23.0409 5.82183C22.4492 5.82183 21.9694 5.34213 21.9694 4.7504V2.60754C21.9694 2.51283 21.9319 2.42199 21.8649 2.355C21.7979 2.28803 21.707 2.2504 21.6123 2.2504H19.4694C18.8777 2.2504 18.398 1.7707 18.398 1.17897ZM13.0409 5.82183C11.2657 5.82183 9.82659 7.26092 9.82659 9.03612C9.82659 10.8113 11.2657 12.2504 13.0409 12.2504C14.8161 12.2504 16.2552 10.8113 16.2552 9.03612C16.2552 7.26092 14.8161 5.82183 13.0409 5.82183ZM7.68373 9.03612C7.68373 6.07744 10.0822 3.67897 13.0409 3.67897C15.9995 3.67897 18.398 6.07744 18.398 9.03612C18.398 10.128 18.0714 11.1436 17.5104 11.9905L19.8699 14.3499C20.2883 14.7684 20.2883 15.4467 19.8699 15.8651C19.4514 16.2835 18.7732 16.2835 18.3547 15.8651L15.9952 13.5057C15.1483 14.0666 14.1327 14.3933 13.0409 14.3933C10.0822 14.3933 7.68373 11.9948 7.68373 9.03612Z" fill="white"/>
</g>
<defs>
<filter id="filter0_d_576_37" x="0.112305" y="0.107544" width="28" height="28" filterUnits="userSpaceOnUse" color-interpolation-filters="sRGB">
<feFlood flood-opacity="0" result="BackgroundImageFix"/>
<feColorMatrix in="SourceAlpha" type="matrix" values="0 0 0 0 0 0 0 0 0 0 0 0 0 0 0 0 0 0 127 0" result="hardAlpha"/>
<feOffset dy="4"/>
<feGaussianBlur stdDeviation="2"/>
<feComposite in2="hardAlpha" operator="out"/>
<feColorMatrix type="matrix" values="0 0 0 0 0 0 0 0 0 0 0 0 0 0 0 0 0 0 0.25 0"/>
<feBlend mode="normal" in2="BackgroundImageFix" result="effect1_dropShadow_576_37"/>
<feBlend mode="normal" in="SourceGraphic" in2="effect1_dropShadow_576_37" result="shape"/>
</filter>
<clipPath id="clip0_576_37">
<rect width="20" height="20" fill="white" transform="translate(4.1123 0.107544)"/>
</clipPath>
</defs>
</svg>
