<svg width="17" height="17" viewBox="0 0 17 17" fill="none" xmlns="http://www.w3.org/2000/svg">
<g clip-path="url(#clip0_403_1668)">
<path fill-rule="evenodd" clip-rule="evenodd" d="M1.91034 1.91034C1.96728 1.85341 2.04449 1.82143 2.125 1.82143H3.94643C4.4494 1.82143 4.85714 1.41368 4.85714 0.910714C4.85714 0.40774 4.4494 0 3.94643 0H2.125C1.56141 0 1.02091 0.223884 0.622398 0.622398C0.223884 1.02091 0 1.56141 0 2.125V3.94643C0 4.4494 0.40774 4.85714 0.910714 4.85714C1.41368 4.85714 1.82143 4.4494 1.82143 3.94643V2.125C1.82143 2.04449 1.85341 1.96728 1.91034 1.91034ZM17 13.0536C17 12.5506 16.5922 12.1429 16.0893 12.1429C15.5863 12.1429 15.1786 12.5506 15.1786 13.0536V14.875C15.1786 14.9555 15.1466 15.0327 15.0897 15.0897C15.0327 15.1466 14.9555 15.1786 14.875 15.1786H13.0536C12.5506 15.1786 12.1429 15.5863 12.1429 16.0893C12.1429 16.5922 12.5506 17 13.0536 17H14.875C15.4385 17 15.979 16.7761 16.3776 16.3776C16.7761 15.979 17 15.4385 17 14.875V13.0536ZM0.910714 12.1429C1.41368 12.1429 1.82143 12.5506 1.82143 13.0536V14.875C1.82143 14.9555 1.85341 15.0327 1.91034 15.0897C1.96728 15.1466 2.04449 15.1786 2.125 15.1786H3.94643C4.4494 15.1786 4.85714 15.5863 4.85714 16.0893C4.85714 16.5922 4.4494 17 3.94643 17H2.125C1.56141 17 1.02091 16.7761 0.622398 16.3776C0.223884 15.979 0 15.4385 0 14.875V13.0536C0 12.5506 0.40774 12.1429 0.910714 12.1429ZM13.0536 0C12.5506 0 12.1429 0.40774 12.1429 0.910714C12.1429 1.41368 12.5506 1.82143 13.0536 1.82143H14.875C14.9555 1.82143 15.0327 1.85341 15.0897 1.91034C15.1466 1.96728 15.1786 2.04449 15.1786 2.125V3.94643C15.1786 4.4494 15.5863 4.85714 16.0893 4.85714C16.5922 4.85714 17 4.4494 17 3.94643V2.125C17 1.56141 16.7761 1.02091 16.3776 0.622398C15.979 0.223884 15.4385 0 14.875 0H13.0536ZM8.49886 9.44286C6.19286 9.44286 4.22643 10.8968 3.46628 12.938C3.33105 13.301 3.62042 13.661 4.00791 13.661H12.9898C13.3773 13.661 13.6667 13.301 13.5314 12.938C12.7713 10.8968 10.8049 9.44286 8.49886 9.44286ZM11.1813 5.41639C11.1813 6.89887 9.97947 8.10065 8.497 8.10065C7.01453 8.10065 5.81275 6.89887 5.81275 5.41639C5.81275 3.93392 7.01453 2.73214 8.497 2.73214C9.97947 2.73214 11.1813 3.93392 11.1813 5.41639Z" fill="#909295"/>
</g>
<defs>
<clipPath id="clip0_403_1668">
<rect width="17" height="17" fill="white"/>
</clipPath>
</defs>
</svg>
