<svg width="28" height="28" viewBox="0 0 28 28" fill="none" xmlns="http://www.w3.org/2000/svg">
<g id="compass-navigator">
<path id="rectangle 650" d="M23.6595 1.10094C25.6336 0.546563 27.4535 2.36642 26.899 4.34044L22.3515 20.5327C22.1038 21.4146 21.4145 22.1039 20.5327 22.3516L4.34044 26.8991C2.36642 27.4533 0.546563 25.6337 1.10094 23.6596L5.64843 7.4673C5.89611 6.58536 6.58536 5.89611 7.4673 5.64843L23.6595 1.10094Z" stroke="white" stroke-linecap="round" stroke-linejoin="round"/>
<path id="ellipse 169" d="M10.8657 17.1343C12.5967 18.8653 15.4033 18.8653 17.1343 17.1343C18.8653 15.4033 18.8653 12.5968 17.1343 10.8657C15.4033 9.13472 12.5967 9.13472 10.8657 10.8657C9.13469 12.5968 9.13469 15.4033 10.8657 17.1343Z" stroke="white" stroke-linecap="round" stroke-linejoin="round"/>
</g>
</svg>
