<svg width="20" height="11" viewBox="0 0 20 11" fill="none" xmlns="http://www.w3.org/2000/svg">
<path fill-rule="evenodd" clip-rule="evenodd" d="M2.30703 0.170831C3.00181 -0.203011 3.86811 0.0571453 4.24195 0.751929C4.5217 1.27181 4.8865 1.7517 5.32132 2.17467C5.35887 2.20677 5.39509 2.2411 5.42976 2.27764C6.58138 3.34491 8.19121 4.02385 10.0007 4.02385C11.8044 4.02385 13.4097 3.34928 14.5606 2.28797C14.6016 2.24394 14.6447 2.20304 14.6897 2.16531C15.1204 1.74463 15.4818 1.26798 15.7596 0.751929C16.1334 0.0571453 16.9997 -0.203011 17.6944 0.170831C18.3893 0.544687 18.6494 1.41098 18.2755 2.10577C18.0881 2.45401 17.877 2.78815 17.6441 3.10644L19.489 4.65262C20.0937 5.1594 20.1731 6.06043 19.6663 6.66513C19.1595 7.26982 18.2585 7.3492 17.6538 6.84243L15.5971 5.11884C15.0886 5.4805 14.5396 5.79336 13.9584 6.05087L14.8396 8.26983C15.1307 9.00312 14.7723 9.8336 14.039 10.1247C13.3057 10.4159 12.4752 10.0575 12.1841 9.32425L11.1859 6.81041C10.7973 6.85701 10.4017 6.88098 10.0007 6.88098C9.5977 6.88098 9.20006 6.85675 8.80949 6.80968L7.81104 9.32425C7.51987 10.0575 6.68938 10.4159 5.9561 10.1247C5.22282 9.8336 4.86442 9.00312 5.15557 8.26983L6.03763 6.04847C5.45819 5.79127 4.91079 5.47904 4.40348 5.11829L2.3462 6.84243C1.7415 7.3492 0.840477 7.26982 0.333699 6.66513C-0.173078 6.06043 -0.0936992 5.1594 0.510998 4.65262L2.35684 3.10568C2.12418 2.78761 1.91318 2.45374 1.72594 2.10577C1.35209 1.41098 1.61226 0.544687 2.30703 0.170831Z" fill="white"/>
</svg>
