<svg width="14" height="17" viewBox="0 0 14 17" fill="none" xmlns="http://www.w3.org/2000/svg">
<path fill-rule="evenodd" clip-rule="evenodd" d="M6.67853 2.42857C5.33727 2.42857 4.24996 3.51588 4.24996 4.85714V6.07143H9.10711V4.85714C9.10711 3.51588 8.0198 2.42857 6.67853 2.42857ZM1.82139 4.85714V6.07143C0.815466 6.07145 0 6.88692 0 7.89286V15.1786C0 16.1845 0.815478 17 1.82143 17H11.5357C12.5417 17 13.3571 16.1845 13.3571 15.1786V7.89286C13.3571 6.88691 12.5417 6.07143 11.5357 6.07143V4.85714C11.5357 2.17462 9.36106 0 6.67853 0C3.99601 0 1.82139 2.17462 1.82139 4.85714ZM6.67857 13.0536C7.51687 13.0536 8.19643 12.3741 8.19643 11.5357C8.19643 10.6974 7.51687 10.0179 6.67857 10.0179C5.84028 10.0179 5.16071 10.6974 5.16071 11.5357C5.16071 12.3741 5.84028 13.0536 6.67857 13.0536Z" fill="#D8DBE1"/>
</svg>
