<svg width="28" height="28" viewBox="0 0 28 28" fill="none" xmlns="http://www.w3.org/2000/svg">
<g id="horizontal-menu-circle--navigation-dots-three-circle-button-horizontal-menu">
<path id="Vector" d="M14 27C21.1798 27 27 21.1798 27 14C27 6.8203 21.1798 1 14 1C6.8203 1 1 6.8203 1 14C1 21.1798 6.8203 27 14 27Z" stroke="white" stroke-linecap="round" stroke-linejoin="round"/>
<g id="Group 2606">
<path id="Ellipse 1111" d="M8 14.5C7.72386 14.5 7.5 14.2761 7.5 14C7.5 13.7239 7.72386 13.5 8 13.5" stroke="white" stroke-linecap="round" stroke-linejoin="round"/>
<path id="Ellipse 1112" d="M8 14.5C8.27614 14.5 8.5 14.2761 8.5 14C8.5 13.7239 8.27614 13.5 8 13.5" stroke="white" stroke-linecap="round" stroke-linejoin="round"/>
</g>
<g id="Group 2632">
<path id="Ellipse 1111_2" d="M14 14.5C13.7239 14.5 13.5 14.2761 13.5 14C13.5 13.7239 13.7239 13.5 14 13.5" stroke="white" stroke-linecap="round" stroke-linejoin="round"/>
<path id="Ellipse 1112_2" d="M14 14.5C14.2761 14.5 14.5 14.2761 14.5 14C14.5 13.7239 14.2761 13.5 14 13.5" stroke="white" stroke-linecap="round" stroke-linejoin="round"/>
</g>
<g id="Group 2633">
<path id="Ellipse 1111_3" d="M20 14.5C19.7239 14.5 19.5 14.2761 19.5 14C19.5 13.7239 19.7239 13.5 20 13.5" stroke="white" stroke-linecap="round" stroke-linejoin="round"/>
<path id="Ellipse 1112_3" d="M20 14.5C20.2762 14.5 20.5 14.2761 20.5 14C20.5 13.7239 20.2762 13.5 20 13.5" stroke="white" stroke-linecap="round" stroke-linejoin="round"/>
</g>
</g>
</svg>
