<svg width="28" height="27" viewBox="0 0 28 27" fill="none" xmlns="http://www.w3.org/2000/svg">
<g id="ringing-bell-notification--notification-vibrate-ring-sound-alarm-alert-bell-noise">
<path id="Vector" d="M12 26H16" stroke="white" stroke-linecap="round" stroke-linejoin="round"/>
<path id="Vector_2" d="M22 11C22 8.87826 21.1572 6.84344 19.6569 5.34314C18.1566 3.84286 16.1217 3 14 3C11.8783 3 9.84344 3.84286 8.34314 5.34314C6.84286 6.84344 6 8.87826 6 11V18C6 18.7956 5.68392 19.5588 5.12132 20.1214C4.55872 20.684 3.79564 21 3 21H25C24.2044 21 23.4412 20.684 22.8786 20.1214C22.316 19.5588 22 18.7956 22 18V11Z" stroke="white" stroke-linecap="round" stroke-linejoin="round"/>
<path id="Vector_3" d="M1 10.74C1.00108 8.83628 1.45507 6.96014 2.32448 5.26654C3.19388 3.57294 4.45374 2.1105 6 1" stroke="white" stroke-linecap="round" stroke-linejoin="round"/>
<path id="Vector_4" d="M27 10.74C26.999 8.83628 26.545 6.96014 25.6756 5.26654C24.8062 3.57294 23.5462 2.1105 22 1" stroke="white" stroke-linecap="round" stroke-linejoin="round"/>
</g>
</svg>
