<svg width="28" height="29" viewBox="0 0 28 29" fill="none" xmlns="http://www.w3.org/2000/svg">
<g clip-path="url(#clip0_576_34)" filter="url(#filter0_d_576_34)">
<path fill-rule="evenodd" clip-rule="evenodd" d="M12.3443 2.98263C12.8132 2.51379 13.4491 2.2504 14.1121 2.2504C14.7751 2.2504 15.411 2.51379 15.8799 2.98263C16.1761 3.27887 16.3903 3.64179 16.5079 4.03612H11.7163C11.8339 3.64179 12.0481 3.27887 12.3443 2.98263ZM9.5245 4.03612C9.67502 3.06927 10.1286 2.16793 10.8291 1.46741C11.6998 0.596701 12.8807 0.107544 14.1121 0.107544C15.3435 0.107544 16.5244 0.596701 17.3951 1.46741C18.0956 2.16793 18.5492 3.06927 18.6997 4.03612H22.6835C23.2752 4.03612 23.755 4.51582 23.755 5.10754C23.755 5.69929 23.2752 6.17897 22.6835 6.17897H21.255V17.9647C21.255 18.533 21.0292 19.0781 20.6274 19.48C20.2255 19.8818 19.6804 20.1075 19.1121 20.1075H9.1121C8.54377 20.1075 7.99872 19.8818 7.59687 19.48C7.19501 19.0781 6.96924 18.533 6.96924 17.9647V6.17897H5.54067C4.94893 6.17897 4.46924 5.69929 4.46924 5.10754C4.46924 4.51582 4.94893 4.03612 5.54067 4.03612H9.5245ZM11.255 8.50249C11.7481 8.50249 12.1478 8.90224 12.1478 9.39534V15.1118C12.1478 15.6048 11.7481 16.0047 11.255 16.0047C10.7618 16.0047 10.3621 15.6048 10.3621 15.1118V9.39534C10.3621 8.90224 10.7618 8.50249 11.255 8.50249ZM17.8621 9.39534C17.8621 8.90224 17.4624 8.50249 16.9692 8.50249C16.4761 8.50249 16.0764 8.90224 16.0764 9.39534V15.1118C16.0764 15.6048 16.4761 16.0047 16.9692 16.0047C17.4624 16.0047 17.8621 15.6048 17.8621 15.1118V9.39534Z" fill="white"/>
</g>
<defs>
<filter id="filter0_d_576_34" x="0.112305" y="0.107544" width="28" height="28" filterUnits="userSpaceOnUse" color-interpolation-filters="sRGB">
<feFlood flood-opacity="0" result="BackgroundImageFix"/>
<feColorMatrix in="SourceAlpha" type="matrix" values="0 0 0 0 0 0 0 0 0 0 0 0 0 0 0 0 0 0 127 0" result="hardAlpha"/>
<feOffset dy="4"/>
<feGaussianBlur stdDeviation="2"/>
<feComposite in2="hardAlpha" operator="out"/>
<feColorMatrix type="matrix" values="0 0 0 0 0 0 0 0 0 0 0 0 0 0 0 0 0 0 0.25 0"/>
<feBlend mode="normal" in2="BackgroundImageFix" result="effect1_dropShadow_576_34"/>
<feBlend mode="normal" in="SourceGraphic" in2="effect1_dropShadow_576_34" result="shape"/>
</filter>
<clipPath id="clip0_576_34">
<rect width="20" height="20" fill="white" transform="translate(4.1123 0.107544)"/>
</clipPath>
</defs>
</svg>
