<svg width="24" height="27" viewBox="0 0 24 27" fill="none" xmlns="http://www.w3.org/2000/svg">
<path fill-rule="evenodd" clip-rule="evenodd" d="M9.30562 1.28688L8.44099 3.51881L5.46508 5.20783L3.0924 4.84589C2.69733 4.79227 2.29523 4.85732 1.93719 5.03275C1.57917 5.20819 1.28136 5.48609 1.08166 5.83117L0.277358 7.23868C0.0712592 7.58925 -0.023697 7.99408 0.00502124 8.39973C0.0337394 8.80538 0.184784 9.19279 0.438218 9.51084L1.94628 11.3808V14.7589L0.478432 16.6289C0.224998 16.9469 0.0739554 17.3343 0.0452372 17.74C0.0165172 18.1456 0.111473 18.5504 0.317572 18.9011L1.12187 20.3085C1.32158 20.6535 1.61939 20.9316 1.97741 21.1069C2.33543 21.2824 2.73753 21.3474 3.13261 21.2938L5.5053 20.9319L8.44099 22.6209L9.30562 24.8529C9.45142 25.2308 9.70796 25.5559 10.0416 25.7853C10.3753 26.015 10.7706 26.1386 11.1756 26.1397H12.8646C13.2697 26.1386 13.6649 26.015 13.9986 25.7853C14.3323 25.5559 14.5888 25.2308 14.7346 24.8529L15.5992 22.6209L18.5349 20.9319L20.9077 21.2938C21.3028 21.3474 21.7048 21.2824 22.0629 21.1069C22.4208 20.9316 22.7186 20.6535 22.9184 20.3085L23.7227 18.9011C23.9287 18.5504 24.0237 18.1456 23.995 17.74C23.9662 17.3343 23.8152 16.9469 23.5618 16.6289L22.0537 14.7589V11.3808L23.5217 9.51084C23.775 9.19279 23.9261 8.80538 23.9548 8.39973C23.9836 7.99408 23.8885 7.58925 23.6824 7.23868L22.8781 5.83117C22.6785 5.48609 22.3807 5.20819 22.0225 5.03275C21.6646 4.85732 21.2624 4.79227 20.8674 4.84589L18.4948 5.20783L15.559 3.51881L14.6944 1.28688C14.5486 0.908986 14.292 0.583942 13.9584 0.354318C13.6247 0.124694 13.2295 0.00119651 12.8244 0H11.1756C10.7706 0.00119651 10.3753 0.124694 10.0416 0.354318C9.70796 0.583942 9.45142 0.908986 9.30562 1.28688ZM12 17.2709C14.3202 17.2709 16.201 15.39 16.201 13.0698C16.201 10.7497 14.3202 8.86883 12 8.86883C9.67986 8.86883 7.799 10.7497 7.799 13.0698C7.799 15.39 9.67986 17.2709 12 17.2709Z" fill="#D8DBE1"/>
</svg>
