<svg width="17" height="17" viewBox="0 0 17 17" fill="none" xmlns="http://www.w3.org/2000/svg">
<path fill-rule="evenodd" clip-rule="evenodd" d="M6.69382 2.44382C7.09234 2.04531 7.63284 1.82143 8.19643 1.82143C8.76002 1.82143 9.30052 2.04531 9.69903 2.44382C9.95083 2.69563 10.1329 3.00411 10.2328 3.33929H6.16001C6.25995 3.00411 6.44203 2.69563 6.69382 2.44382ZM4.29697 3.33929C4.42492 2.51747 4.81043 1.75133 5.40588 1.15588C6.14599 0.415784 7.14978 0 8.19643 0C9.24308 0 10.2469 0.415784 10.987 1.15588C11.5824 1.75133 11.968 2.51747 12.0959 3.33929H15.4821C15.9851 3.33929 16.3929 3.74703 16.3929 4.25C16.3929 4.75298 15.9851 5.16071 15.4821 5.16071H14.2679V15.1786C14.2679 15.6616 14.076 16.125 13.7344 16.4666C13.3928 16.8081 12.9295 17 12.4464 17H3.94643C3.46335 17 3.00006 16.8081 2.65848 16.4666C2.31691 16.125 2.125 15.6616 2.125 15.1786V5.16071H0.910714C0.40774 5.16071 0 4.75298 0 4.25C0 3.74703 0.40774 3.33929 0.910714 3.33929H4.29697ZM5.76786 7.1357C6.187 7.1357 6.52679 7.4755 6.52679 7.89463V12.7536C6.52679 13.1727 6.187 13.5126 5.76786 13.5126C5.34871 13.5126 5.00893 13.1727 5.00893 12.7536V7.89463C5.00893 7.4755 5.34871 7.1357 5.76786 7.1357ZM11.3839 7.89463C11.3839 7.4755 11.0441 7.1357 10.625 7.1357C10.2059 7.1357 9.86607 7.4755 9.86607 7.89463V12.7536C9.86607 13.1727 10.2059 13.5126 10.625 13.5126C11.0441 13.5126 11.3839 13.1727 11.3839 12.7536V7.89463Z" fill="white"/>
</svg>
