<svg width="21" height="21" viewBox="0 0 21 21" fill="none" xmlns="http://www.w3.org/2000/svg">
<g clip-path="url(#clip0_579_34)">
<path fill-rule="evenodd" clip-rule="evenodd" d="M2.35976 2.355C2.42675 2.28803 2.51759 2.2504 2.6123 2.2504H4.75516C5.34689 2.2504 5.82659 1.7707 5.82659 1.17897C5.82659 0.587238 5.34689 0.107544 4.75516 0.107544H2.6123C1.94926 0.107544 1.31338 0.370937 0.844538 0.839777C0.375698 1.30862 0.112305 1.9445 0.112305 2.60754V4.7504C0.112305 5.34213 0.591999 5.82183 1.18373 5.82183C1.77546 5.82183 2.25516 5.34213 2.25516 4.7504V2.60754C2.25516 2.51283 2.29279 2.42199 2.35976 2.355ZM20.1123 15.4647C20.1123 14.873 19.6326 14.3933 19.0409 14.3933C18.4492 14.3933 17.9694 14.873 17.9694 15.4647V17.6075C17.9694 17.7023 17.9319 17.7931 17.8649 17.8601C17.7979 17.9271 17.707 17.9647 17.6123 17.9647H15.4694C14.8777 17.9647 14.398 18.4444 14.398 19.0361C14.398 19.6278 14.8777 20.1075 15.4694 20.1075H17.6123C18.2753 20.1075 18.9112 19.8441 19.38 19.3753C19.8489 18.9064 20.1123 18.2705 20.1123 17.6075V15.4647ZM1.18373 14.3933C1.77546 14.3933 2.25516 14.873 2.25516 15.4647V17.6075C2.25516 17.7023 2.29279 17.7931 2.35976 17.8601C2.42675 17.9271 2.51759 17.9647 2.6123 17.9647H4.75516C5.34689 17.9647 5.82659 18.4444 5.82659 19.0361C5.82659 19.6278 5.34689 20.1075 4.75516 20.1075H2.6123C1.94926 20.1075 1.31338 19.8441 0.844538 19.3753C0.375698 18.9064 0.112305 18.2705 0.112305 17.6075V15.4647C0.112305 14.873 0.591999 14.3933 1.18373 14.3933ZM15.4694 0.107544C14.8777 0.107544 14.398 0.587238 14.398 1.17897C14.398 1.7707 14.8777 2.2504 15.4694 2.2504H17.6123C17.707 2.2504 17.7979 2.28803 17.8649 2.355C17.9319 2.42199 17.9694 2.51283 17.9694 2.60754V4.7504C17.9694 5.34213 18.4492 5.82183 19.0409 5.82183C19.6326 5.82183 20.1123 5.34213 20.1123 4.7504V2.60754C20.1123 1.9445 19.8489 1.30862 19.38 0.839777C18.9112 0.370937 18.2753 0.107544 17.6123 0.107544H15.4694ZM10.111 11.2168C7.39802 11.2168 5.08458 12.9273 4.19028 15.3287C4.03119 15.7558 4.37162 16.1793 4.82749 16.1793H15.3944C15.8503 16.1793 16.1907 15.7558 16.0316 15.3287C15.1373 12.9273 12.8239 11.2168 10.111 11.2168ZM13.2667 6.47977C13.2667 8.22386 11.8529 9.63772 10.1088 9.63772C8.36469 9.63772 6.95083 8.22386 6.95083 6.47977C6.95083 4.73569 8.36469 3.32183 10.1088 3.32183C11.8529 3.32183 13.2667 4.73569 13.2667 6.47977Z" fill="white"/>
</g>
<defs>
<clipPath id="clip0_579_34">
<rect width="20" height="20" fill="white" transform="translate(0.112305 0.107544)"/>
</clipPath>
</defs>
</svg>
