<svg width="114" height="114" viewBox="0 0 114 114" fill="none" xmlns="http://www.w3.org/2000/svg">
<path fill-rule="evenodd" clip-rule="evenodd" d="M99.7383 42.9128C107.518 66.5165 94.6908 91.958 71.0871 99.738C47.4835 107.518 22.0419 94.6906 14.2618 71.0868C6.48179 47.4832 19.3094 22.0416 42.913 14.2616C66.5167 6.48152 91.9582 19.3091 99.7383 42.9128ZM45.8465 48.8308C44.4572 44.6158 46.7478 40.0727 50.9628 38.6834C55.1777 37.2941 59.7208 39.5847 61.1101 43.7997C62.4994 48.0147 60.2088 52.5578 55.9938 53.9471C53.4649 54.7806 52.0905 57.5066 52.9241 60.0355L54.2251 63.9826C55.0587 66.5116 57.7846 67.8859 60.3135 67.0523C62.8424 66.2188 64.2169 63.4929 63.3833 60.9639C69.7735 56.6479 72.8015 48.4665 70.2683 40.7811C67.2119 31.5082 57.217 26.4688 47.9441 29.5252C38.6713 32.5817 33.6318 42.5766 36.6883 51.8494C37.5219 54.3784 40.2478 55.7528 42.7767 54.9192C45.3056 54.0856 46.68 51.3597 45.8465 48.8308ZM70.149 76.3565C71.2605 79.7285 69.428 83.3629 66.056 84.4744C62.684 85.5858 59.0496 83.7534 57.9381 80.3814C56.8267 77.0094 58.6592 73.3749 62.0311 72.2635C65.4031 71.152 69.0376 72.9845 70.149 76.3565Z" fill="white"/>
</svg>
